<mxfile host="app.diagrams.net" modified="2021-09-13T05:48:06.668Z" agent="5.0 (Macintosh; Intel Mac OS X 10_15_7) AppleWebKit/537.36 (KHTML, like Gecko) Chrome/93.0.4577.63 Safari/537.36" etag="z94GdookAHwapRCvUUi8" version="15.1.0" type="github">
  <diagram id="wW7M70kCXAuxhLI22_DI" name="Page-1">
    <mxGraphModel dx="1035" dy="808" grid="1" gridSize="10" guides="1" tooltips="1" connect="1" arrows="1" fold="1" page="1" pageScale="1" pageWidth="827" pageHeight="1169" math="0" shadow="0">
      <root>
        <mxCell id="0" />
        <mxCell id="1" parent="0" />
        <mxCell id="zlN1Ve-jT4t-Uw-fLpNW-6" style="rounded=0;orthogonalLoop=1;jettySize=auto;html=1;exitX=0.5;exitY=1;exitDx=0;exitDy=0;entryX=0.5;entryY=0;entryDx=0;entryDy=0;dashed=1;" edge="1" parent="1" source="zlN1Ve-jT4t-Uw-fLpNW-1" target="zlN1Ve-jT4t-Uw-fLpNW-2">
          <mxGeometry relative="1" as="geometry" />
        </mxCell>
        <mxCell id="zlN1Ve-jT4t-Uw-fLpNW-7" style="edgeStyle=none;rounded=0;orthogonalLoop=1;jettySize=auto;html=1;exitX=0.5;exitY=1;exitDx=0;exitDy=0;entryX=0.5;entryY=0;entryDx=0;entryDy=0;dashed=1;" edge="1" parent="1" source="zlN1Ve-jT4t-Uw-fLpNW-1" target="zlN1Ve-jT4t-Uw-fLpNW-3">
          <mxGeometry relative="1" as="geometry" />
        </mxCell>
        <mxCell id="zlN1Ve-jT4t-Uw-fLpNW-8" style="edgeStyle=none;rounded=0;orthogonalLoop=1;jettySize=auto;html=1;exitX=0.5;exitY=1;exitDx=0;exitDy=0;entryX=0.5;entryY=0;entryDx=0;entryDy=0;dashed=1;" edge="1" parent="1" source="zlN1Ve-jT4t-Uw-fLpNW-1" target="zlN1Ve-jT4t-Uw-fLpNW-4">
          <mxGeometry relative="1" as="geometry" />
        </mxCell>
        <mxCell id="zlN1Ve-jT4t-Uw-fLpNW-1" value="Paddle Model" style="rounded=1;whiteSpace=wrap;html=1;" vertex="1" parent="1">
          <mxGeometry x="320" y="30" width="120" height="60" as="geometry" />
        </mxCell>
        <mxCell id="zlN1Ve-jT4t-Uw-fLpNW-2" value="" style="rounded=1;whiteSpace=wrap;html=1;dashed=1;fillColor=#ffe6cc;strokeColor=#d79b00;" vertex="1" parent="1">
          <mxGeometry x="160" y="230" width="120" height="200" as="geometry" />
        </mxCell>
        <mxCell id="zlN1Ve-jT4t-Uw-fLpNW-3" value="" style="rounded=1;whiteSpace=wrap;html=1;dashed=1;fillColor=#f5f5f5;strokeColor=#666666;fontColor=#333333;" vertex="1" parent="1">
          <mxGeometry x="320" y="230" width="120" height="200" as="geometry" />
        </mxCell>
        <mxCell id="zlN1Ve-jT4t-Uw-fLpNW-4" value="" style="rounded=1;whiteSpace=wrap;html=1;dashed=1;fillColor=#d5e8d4;strokeColor=#82b366;" vertex="1" parent="1">
          <mxGeometry x="480" y="230" width="120" height="200" as="geometry" />
        </mxCell>
        <mxCell id="zlN1Ve-jT4t-Uw-fLpNW-9" value="Server" style="text;html=1;strokeColor=none;fillColor=none;align=center;verticalAlign=middle;whiteSpace=wrap;rounded=0;dashed=1;" vertex="1" parent="1">
          <mxGeometry x="150" y="200" width="40" height="20" as="geometry" />
        </mxCell>
        <mxCell id="zlN1Ve-jT4t-Uw-fLpNW-10" value="Mobile &amp;amp; IoT" style="text;html=1;strokeColor=none;fillColor=none;align=center;verticalAlign=middle;whiteSpace=wrap;rounded=0;dashed=1;" vertex="1" parent="1">
          <mxGeometry x="320" y="200" width="40" height="20" as="geometry" />
        </mxCell>
        <mxCell id="zlN1Ve-jT4t-Uw-fLpNW-11" value="IoT Micro" style="text;html=1;strokeColor=none;fillColor=none;align=center;verticalAlign=middle;whiteSpace=wrap;rounded=0;dashed=1;" vertex="1" parent="1">
          <mxGeometry x="540" y="200" width="40" height="20" as="geometry" />
        </mxCell>
        <mxCell id="zlN1Ve-jT4t-Uw-fLpNW-14" value="" style="edgeStyle=none;rounded=0;orthogonalLoop=1;jettySize=auto;html=1;" edge="1" parent="1" source="zlN1Ve-jT4t-Uw-fLpNW-12" target="zlN1Ve-jT4t-Uw-fLpNW-13">
          <mxGeometry relative="1" as="geometry" />
        </mxCell>
        <mxCell id="zlN1Ve-jT4t-Uw-fLpNW-12" value="IR" style="rounded=0;whiteSpace=wrap;html=1;" vertex="1" parent="1">
          <mxGeometry x="170" y="250" width="100" height="50" as="geometry" />
        </mxCell>
        <mxCell id="zlN1Ve-jT4t-Uw-fLpNW-13" value="Runtime" style="rounded=0;whiteSpace=wrap;html=1;" vertex="1" parent="1">
          <mxGeometry x="170" y="330" width="100" height="50" as="geometry" />
        </mxCell>
        <mxCell id="zlN1Ve-jT4t-Uw-fLpNW-15" value="" style="edgeStyle=none;rounded=0;orthogonalLoop=1;jettySize=auto;html=1;" edge="1" parent="1" source="zlN1Ve-jT4t-Uw-fLpNW-16" target="zlN1Ve-jT4t-Uw-fLpNW-17">
          <mxGeometry relative="1" as="geometry" />
        </mxCell>
        <mxCell id="zlN1Ve-jT4t-Uw-fLpNW-16" value="IR" style="rounded=0;whiteSpace=wrap;html=1;" vertex="1" parent="1">
          <mxGeometry x="330" y="250" width="100" height="50" as="geometry" />
        </mxCell>
        <mxCell id="zlN1Ve-jT4t-Uw-fLpNW-17" value="Runtime" style="rounded=0;whiteSpace=wrap;html=1;" vertex="1" parent="1">
          <mxGeometry x="330" y="330" width="100" height="50" as="geometry" />
        </mxCell>
        <mxCell id="zlN1Ve-jT4t-Uw-fLpNW-18" value="" style="edgeStyle=none;rounded=0;orthogonalLoop=1;jettySize=auto;html=1;" edge="1" parent="1" source="zlN1Ve-jT4t-Uw-fLpNW-19" target="zlN1Ve-jT4t-Uw-fLpNW-20">
          <mxGeometry relative="1" as="geometry" />
        </mxCell>
        <mxCell id="zlN1Ve-jT4t-Uw-fLpNW-19" value="IR" style="rounded=0;whiteSpace=wrap;html=1;" vertex="1" parent="1">
          <mxGeometry x="490" y="250" width="100" height="50" as="geometry" />
        </mxCell>
        <mxCell id="zlN1Ve-jT4t-Uw-fLpNW-20" value="Runtime" style="rounded=0;whiteSpace=wrap;html=1;" vertex="1" parent="1">
          <mxGeometry x="490" y="330" width="100" height="50" as="geometry" />
        </mxCell>
        <mxCell id="zlN1Ve-jT4t-Uw-fLpNW-43" style="edgeStyle=none;rounded=0;orthogonalLoop=1;jettySize=auto;html=1;exitX=0.5;exitY=1;exitDx=0;exitDy=0;entryX=0.5;entryY=0;entryDx=0;entryDy=0;dashed=1;" edge="1" parent="1" source="zlN1Ve-jT4t-Uw-fLpNW-24" target="zlN1Ve-jT4t-Uw-fLpNW-40">
          <mxGeometry relative="1" as="geometry" />
        </mxCell>
        <mxCell id="zlN1Ve-jT4t-Uw-fLpNW-24" value="Paddle Model" style="rounded=1;whiteSpace=wrap;html=1;" vertex="1" parent="1">
          <mxGeometry x="330" y="460" width="120" height="60" as="geometry" />
        </mxCell>
        <mxCell id="zlN1Ve-jT4t-Uw-fLpNW-25" value="" style="rounded=1;whiteSpace=wrap;html=1;dashed=1;fillColor=#ffe6cc;strokeColor=#d79b00;" vertex="1" parent="1">
          <mxGeometry x="170" y="700" width="120" height="80" as="geometry" />
        </mxCell>
        <mxCell id="zlN1Ve-jT4t-Uw-fLpNW-26" value="" style="rounded=1;whiteSpace=wrap;html=1;dashed=1;fillColor=#f5f5f5;strokeColor=#666666;fontColor=#333333;" vertex="1" parent="1">
          <mxGeometry x="330" y="700" width="120" height="80" as="geometry" />
        </mxCell>
        <mxCell id="zlN1Ve-jT4t-Uw-fLpNW-27" value="" style="rounded=1;whiteSpace=wrap;html=1;dashed=1;fillColor=#d5e8d4;strokeColor=#82b366;" vertex="1" parent="1">
          <mxGeometry x="490" y="700" width="120" height="80" as="geometry" />
        </mxCell>
        <mxCell id="zlN1Ve-jT4t-Uw-fLpNW-28" value="Server" style="text;html=1;strokeColor=none;fillColor=none;align=center;verticalAlign=middle;whiteSpace=wrap;rounded=0;dashed=1;" vertex="1" parent="1">
          <mxGeometry x="160" y="670" width="40" height="20" as="geometry" />
        </mxCell>
        <mxCell id="zlN1Ve-jT4t-Uw-fLpNW-29" value="Mobile &amp;amp; IoT" style="text;html=1;strokeColor=none;fillColor=none;align=center;verticalAlign=middle;whiteSpace=wrap;rounded=0;dashed=1;" vertex="1" parent="1">
          <mxGeometry x="330" y="670" width="40" height="20" as="geometry" />
        </mxCell>
        <mxCell id="zlN1Ve-jT4t-Uw-fLpNW-30" value="IoT Micro" style="text;html=1;strokeColor=none;fillColor=none;align=center;verticalAlign=middle;whiteSpace=wrap;rounded=0;dashed=1;" vertex="1" parent="1">
          <mxGeometry x="550" y="670" width="40" height="20" as="geometry" />
        </mxCell>
        <mxCell id="zlN1Ve-jT4t-Uw-fLpNW-33" value="Runtime" style="rounded=0;whiteSpace=wrap;html=1;" vertex="1" parent="1">
          <mxGeometry x="180" y="720" width="100" height="40" as="geometry" />
        </mxCell>
        <mxCell id="zlN1Ve-jT4t-Uw-fLpNW-44" style="edgeStyle=none;rounded=0;orthogonalLoop=1;jettySize=auto;html=1;exitX=0.5;exitY=1;exitDx=0;exitDy=0;entryX=0.5;entryY=0;entryDx=0;entryDy=0;dashed=1;" edge="1" parent="1" source="zlN1Ve-jT4t-Uw-fLpNW-40" target="zlN1Ve-jT4t-Uw-fLpNW-25">
          <mxGeometry relative="1" as="geometry" />
        </mxCell>
        <mxCell id="zlN1Ve-jT4t-Uw-fLpNW-45" style="edgeStyle=none;rounded=0;orthogonalLoop=1;jettySize=auto;html=1;exitX=0.5;exitY=1;exitDx=0;exitDy=0;entryX=0.5;entryY=0;entryDx=0;entryDy=0;dashed=1;" edge="1" parent="1" source="zlN1Ve-jT4t-Uw-fLpNW-40" target="zlN1Ve-jT4t-Uw-fLpNW-26">
          <mxGeometry relative="1" as="geometry" />
        </mxCell>
        <mxCell id="zlN1Ve-jT4t-Uw-fLpNW-46" style="edgeStyle=none;rounded=0;orthogonalLoop=1;jettySize=auto;html=1;exitX=0.5;exitY=1;exitDx=0;exitDy=0;entryX=0.5;entryY=0;entryDx=0;entryDy=0;dashed=1;" edge="1" parent="1" source="zlN1Ve-jT4t-Uw-fLpNW-40" target="zlN1Ve-jT4t-Uw-fLpNW-27">
          <mxGeometry relative="1" as="geometry" />
        </mxCell>
        <mxCell id="zlN1Ve-jT4t-Uw-fLpNW-40" value="IR" style="rounded=0;whiteSpace=wrap;html=1;" vertex="1" parent="1">
          <mxGeometry x="290" y="585" width="200" height="50" as="geometry" />
        </mxCell>
        <mxCell id="zlN1Ve-jT4t-Uw-fLpNW-41" value="Runtime" style="rounded=0;whiteSpace=wrap;html=1;" vertex="1" parent="1">
          <mxGeometry x="340" y="720" width="100" height="40" as="geometry" />
        </mxCell>
        <mxCell id="zlN1Ve-jT4t-Uw-fLpNW-42" value="Runtime" style="rounded=0;whiteSpace=wrap;html=1;" vertex="1" parent="1">
          <mxGeometry x="500" y="720" width="100" height="40" as="geometry" />
        </mxCell>
        <mxCell id="zlN1Ve-jT4t-Uw-fLpNW-53" value="" style="group;fillColor=#dae8fc;strokeColor=#6c8ebf;" vertex="1" connectable="0" parent="1">
          <mxGeometry x="30" y="810" width="720" height="50" as="geometry" />
        </mxCell>
        <mxCell id="zlN1Ve-jT4t-Uw-fLpNW-47" value="x86 Kernels" style="rounded=0;whiteSpace=wrap;html=1;fillColor=#dae8fc;strokeColor=#6c8ebf;" vertex="1" parent="zlN1Ve-jT4t-Uw-fLpNW-53">
          <mxGeometry width="120" height="50" as="geometry" />
        </mxCell>
        <mxCell id="zlN1Ve-jT4t-Uw-fLpNW-48" value="NV GPU Kernels" style="rounded=0;whiteSpace=wrap;html=1;fillColor=#dae8fc;strokeColor=#6c8ebf;" vertex="1" parent="zlN1Ve-jT4t-Uw-fLpNW-53">
          <mxGeometry x="120" width="120" height="50" as="geometry" />
        </mxCell>
        <mxCell id="zlN1Ve-jT4t-Uw-fLpNW-49" value="ARM CPU Kernels" style="rounded=0;whiteSpace=wrap;html=1;fillColor=#dae8fc;strokeColor=#6c8ebf;" vertex="1" parent="zlN1Ve-jT4t-Uw-fLpNW-53">
          <mxGeometry x="240" width="120" height="50" as="geometry" />
        </mxCell>
        <mxCell id="zlN1Ve-jT4t-Uw-fLpNW-50" value="ARM CPU Kernels" style="rounded=0;whiteSpace=wrap;html=1;fillColor=#dae8fc;strokeColor=#6c8ebf;" vertex="1" parent="zlN1Ve-jT4t-Uw-fLpNW-53">
          <mxGeometry x="360" width="120" height="50" as="geometry" />
        </mxCell>
        <mxCell id="zlN1Ve-jT4t-Uw-fLpNW-51" value="OpenCL Kernels" style="rounded=0;whiteSpace=wrap;html=1;fillColor=#dae8fc;strokeColor=#6c8ebf;" vertex="1" parent="zlN1Ve-jT4t-Uw-fLpNW-53">
          <mxGeometry x="480" width="120" height="50" as="geometry" />
        </mxCell>
        <mxCell id="zlN1Ve-jT4t-Uw-fLpNW-52" value="..." style="rounded=0;whiteSpace=wrap;html=1;fillColor=#dae8fc;strokeColor=#6c8ebf;" vertex="1" parent="zlN1Ve-jT4t-Uw-fLpNW-53">
          <mxGeometry x="600" width="120" height="50" as="geometry" />
        </mxCell>
        <mxCell id="zlN1Ve-jT4t-Uw-fLpNW-54" value="x86 Kernels" style="rounded=0;whiteSpace=wrap;html=1;fillColor=#dae8fc;strokeColor=#6c8ebf;" vertex="1" parent="1">
          <mxGeometry x="170" y="390" width="60" height="30" as="geometry" />
        </mxCell>
        <mxCell id="zlN1Ve-jT4t-Uw-fLpNW-55" value="..." style="rounded=0;whiteSpace=wrap;html=1;fillColor=#dae8fc;strokeColor=#6c8ebf;" vertex="1" parent="1">
          <mxGeometry x="230" y="390" width="40" height="30" as="geometry" />
        </mxCell>
        <mxCell id="zlN1Ve-jT4t-Uw-fLpNW-56" value="x86 Kernels" style="rounded=0;whiteSpace=wrap;html=1;fillColor=#dae8fc;strokeColor=#6c8ebf;" vertex="1" parent="1">
          <mxGeometry x="330" y="390" width="60" height="30" as="geometry" />
        </mxCell>
        <mxCell id="zlN1Ve-jT4t-Uw-fLpNW-57" value="..." style="rounded=0;whiteSpace=wrap;html=1;fillColor=#dae8fc;strokeColor=#6c8ebf;" vertex="1" parent="1">
          <mxGeometry x="390" y="390" width="40" height="30" as="geometry" />
        </mxCell>
        <mxCell id="zlN1Ve-jT4t-Uw-fLpNW-58" value="ARM Kernels" style="rounded=0;whiteSpace=wrap;html=1;fillColor=#dae8fc;strokeColor=#6c8ebf;" vertex="1" parent="1">
          <mxGeometry x="490" y="390" width="60" height="30" as="geometry" />
        </mxCell>
        <mxCell id="zlN1Ve-jT4t-Uw-fLpNW-59" value="..." style="rounded=0;whiteSpace=wrap;html=1;fillColor=#dae8fc;strokeColor=#6c8ebf;" vertex="1" parent="1">
          <mxGeometry x="550" y="390" width="40" height="30" as="geometry" />
        </mxCell>
      </root>
    </mxGraphModel>
  </diagram>
</mxfile>
